<svg xmlns="http://www.w3.org/2000/svg" viewBox="0 0 144 136.93"><defs><style>.cls-1{fill:#fff;}.cls-2{fill:#85c300;}</style></defs><title>Stacked_Reversed_1</title><g id="Layer_2" data-name="Layer 2"><g id="Layer_1-2" data-name="Layer 1"><path class="cls-1" d="M32.82,132.12a7,7,0,1,1,7-7,7,7,0,0,1-7,7m0-18.79a11.8,11.8,0,1,0,11.8,11.83,11.75,11.75,0,0,0-11.8-11.83m34.6.33H64.29a.8.8,0,0,0-.79.75v10.38a.79.79,0,0,1-1.32.58l-1.12-1.05L50,113.9a.8.8,0,0,0-1.35.56l0,15.83h0v5.52a.78.78,0,0,0,.79.79h3.14a.8.8,0,0,0,.78-.75v-5.56h0v-5.06a.79.79,0,0,1,1.35-.55l6.74,6.61,5.14,5.06a1,1,0,0,0,1.63-.74V114.45a.78.78,0,0,0-.79-.79m25.08,0H89a.8.8,0,0,0-.71.46l-2.18,4.81-2.87,6.37a.78.78,0,0,1-1.44,0s-1.52-3.34-2.89-6.38c-1.13-2.5-2.16-4.79-2.18-4.81a.79.79,0,0,0-.7-.46H72.55a.79.79,0,0,0-.72,1.11l1.93,4.16,8,17.3a.8.8,0,0,0,1.44,0l8.06-17.3h0l1.93-4.16a.79.79,0,0,0-.72-1.11m33.3,0h-3.49a.8.8,0,0,0-.71.46l-2.18,4.81-2.87,6.37a.78.78,0,0,1-1.44,0s-1.52-3.34-2.89-6.38c-1.13-2.5-2.16-4.79-2.18-4.81a.79.79,0,0,0-.7-.46h-3.49a.79.79,0,0,0-.72,1.11l1.93,4.16,8,17.3a.8.8,0,0,0,1.44,0l8.06-17.3h0l1.92-4.16a.79.79,0,0,0-.71-1.11m-25,22.93a.78.78,0,0,0,.79-.78V114.44a.78.78,0,0,0-.79-.78H97.58a.78.78,0,0,0-.78.78v21.37a.78.78,0,0,0,.78.78h3.18M135,129.1h-3.51a.78.78,0,0,1-.72-1.11l1.75-3.84a.79.79,0,0,1,1.44,0l1.76,3.82a.79.79,0,0,1-.72,1.12m8.93,6.35-.72-1.54L134,114a.8.8,0,0,0-1.43,0l-9.25,19.89-.71,1.54a.78.78,0,0,0,.7,1.14h3c.58,0,.73-.16.95-.63h0l.92-2.05.15-.34a.8.8,0,0,1,.72-.47h8.48a.79.79,0,0,1,.71.46l.16.35.92,2.05h0a.83.83,0,0,0,.95.63h3a.79.79,0,0,0,.71-1.14M5.05,125A7.23,7.23,0,0,1,7,120.06a6.45,6.45,0,0,1,4.8-2.09h0a7,7,0,0,1,4.33,1.5.8.8,0,0,0,1.06-.07l2-2a.79.79,0,0,0-.08-1.14,10.73,10.73,0,0,0-7.43-2.69A11.57,11.57,0,0,0,0,125v.19a11.57,11.57,0,0,0,11.59,11.47A10.68,10.68,0,0,0,19,134a.79.79,0,0,0,.08-1.14l-2-2a.8.8,0,0,0-1.06-.08,6.94,6.94,0,0,1-4.33,1.5h0A6.48,6.48,0,0,1,7,130.14a7.26,7.26,0,0,1-1.9-4.95Z"/><path class="cls-1" d="M83.6,33.41h0a2.48,2.48,0,0,1,.91-3.4l12.56-7.26a1.31,1.31,0,0,0,0-2.27L72.16,6.1a2.61,2.61,0,0,0-2.62,0L44.63,20.48a1.31,1.31,0,0,0,0,2.27L57.19,30a2.48,2.48,0,0,1,.91,3.4h0a2.5,2.5,0,0,1-3.4.91L36.64,23.89a2.63,2.63,0,0,1,0-4.55l32.9-19a2.61,2.61,0,0,1,2.62,0l32.89,19a2.63,2.63,0,0,1,0,4.55L87,34.32A2.5,2.5,0,0,1,83.6,33.41Z"/><path class="cls-2" d="M97.54,59.05,74.72,45.88a2.62,2.62,0,0,1-1.31-2.27V17.26A2.63,2.63,0,0,1,77.35,15l8.34,4.81a2.49,2.49,0,0,1,.91,3.4h0a2.49,2.49,0,0,1-3.4.91l-2.84-1.64a1.32,1.32,0,0,0-2,1.14V40.73A2.64,2.64,0,0,0,79.7,43l16.8,9.7V47.15A2.49,2.49,0,0,1,99,44.66h0a2.5,2.5,0,0,1,2.49,2.49v9.63A2.63,2.63,0,0,1,97.54,59.05Z"/><path class="cls-1" d="M73.41,87.58V66.73a2.5,2.5,0,0,1,2.49-2.49h0a2.49,2.49,0,0,1,2.49,2.49v14.5a1.31,1.31,0,0,0,2,1.14L105.27,68a2.62,2.62,0,0,0,1.31-2.27V37a1.31,1.31,0,0,0-2-1.14L92.05,43.07a2.49,2.49,0,0,1-3.4-.91h0a2.49,2.49,0,0,1,.91-3.4l18.06-10.43a2.63,2.63,0,0,1,3.94,2.28v38a2.61,2.61,0,0,1-1.31,2.27l-32.9,19A2.63,2.63,0,0,1,73.41,87.58Z"/><path class="cls-2" d="M40.22,56.78V47.15a2.49,2.49,0,0,1,2.49-2.49h0a2.5,2.5,0,0,1,2.49,2.49v5.56L62,43a2.63,2.63,0,0,0,1.32-2.28V23.61a1.32,1.32,0,0,0-2-1.14L58.5,24.11a2.49,2.49,0,0,1-3.4-.91h0A2.49,2.49,0,0,1,56,19.8L64.35,15a2.62,2.62,0,0,1,3.93,2.27V43.61A2.62,2.62,0,0,1,67,45.88L44.16,59.05A2.63,2.63,0,0,1,40.22,56.78Z"/><path class="cls-1" d="M64.34,89.86l-32.89-19a2.61,2.61,0,0,1-1.31-2.27v-38a2.63,2.63,0,0,1,3.94-2.28L52.13,38.76a2.49,2.49,0,0,1,.91,3.4h0a2.49,2.49,0,0,1-3.4.91L37.08,35.82a1.31,1.31,0,0,0-2,1.14V65.72A2.62,2.62,0,0,0,36.43,68L61.34,82.37a1.31,1.31,0,0,0,2-1.14V66.73a2.5,2.5,0,0,1,2.49-2.49h0a2.49,2.49,0,0,1,2.49,2.49V87.58A2.63,2.63,0,0,1,64.34,89.86Z"/><path class="cls-2" d="M83.24,71.94h0a2.49,2.49,0,0,1,.91-3.4L87,66.9a1.31,1.31,0,0,0,0-2.27L72.16,56.07a2.61,2.61,0,0,0-2.62,0L54.71,64.63a1.31,1.31,0,0,0,0,2.27l2.84,1.64a2.5,2.5,0,0,1,.91,3.4h0a2.49,2.49,0,0,1-3.4.91L46.72,68a2.63,2.63,0,0,1,0-4.55L69.54,50.32a2.61,2.61,0,0,1,2.62,0L95,63.49A2.63,2.63,0,0,1,95,68l-8.34,4.81A2.49,2.49,0,0,1,83.24,71.94Z"/></g></g></svg>